<?xml version="1.0" standalone="no"?>
<!DOCTYPE svg PUBLIC "-//W3C//DTD SVG 20010904//EN"
 "http://www.w3.org/TR/2001/REC-SVG-20010904/DTD/svg10.dtd">
<svg version="1.0" xmlns="http://www.w3.org/2000/svg"
 width="300.000000pt" height="300.000000pt" viewBox="0 0 300.000000 300.000000"
 preserveAspectRatio="xMidYMid meet">
<metadata>
Created by potrace 1.10, written by Peter Selinger 2001-2011
</metadata>
<g transform="translate(0.000000,300.000000) scale(0.100000,-0.100000)"
fill="#000000" stroke="none">
<path d="M2072 1509 l3 -174 34 0 34 0 -2 85 -2 85 28 -26 c15 -14 62 -55 103
-91 l76 -67 -1 175 0 175 -35 -3 -35 -3 4 -85 3 -85 -23 20 c-13 11 -61 53
-107 94 l-82 73 2 -173z m89 35 c14 -16 18 -25 9 -22 -8 3 -23 1 -32 -4 -15
-7 -18 -4 -18 22 0 37 9 38 41 4z m139 -89 c0 -31 -10 -32 -38 -2 l-21 22 30
2 c25 2 29 -1 29 -22z"/>
<path d="M708 1653 c-28 -18 -48 -52 -48 -83 0 -33 45 -73 111 -100 55 -22 64
-29 64 -50 0 -22 -5 -25 -43 -28 -26 -2 -53 3 -66 11 -20 13 -24 12 -50 -9
l-28 -24 48 -21 c65 -29 154 -23 189 12 61 61 33 123 -73 163 -72 28 -91 48
-71 72 13 16 76 19 98 5 15 -10 61 13 61 30 0 5 -13 15 -30 24 -39 20 -128 19
-162 -2z"/>
<path d="M1050 1500 l0 -170 35 0 35 0 0 75 0 75 70 0 70 0 0 -75 0 -75 35 0
35 0 0 171 0 170 -37 -3 -37 -3 3 -67 2 -68 -70 0 -71 0 0 70 0 70 -35 0 -35
0 0 -170z"/>
<path d="M1460 1500 l0 -170 135 0 135 0 0 30 0 30 -100 0 -100 0 0 45 0 45
90 0 90 0 0 28 0 27 -90 -3 -90 -3 0 40 0 41 100 0 100 0 0 30 0 30 -135 0
-135 0 0 -170z"/>
<path d="M1870 1500 l0 -170 35 0 35 0 0 170 0 170 -35 0 -35 0 0 -170z"/>
</g>
</svg>
